<?xml version="1.0" encoding="utf-8"?>
<!-- Generator: Adobe Illustrator 25.1.0, SVG Export Plug-In . SVG Version: 6.00 Build 0)  -->
<svg version="1.1" id="Layer_1" xmlns="http://www.w3.org/2000/svg" xmlns:xlink="http://www.w3.org/1999/xlink" x="0px" y="0px"
	 viewBox="0 0 24 24" style="enable-background:new 0 0 24 24;" xml:space="preserve">
<g>
	<path d="M20,2.4L20,2.4H4c-2.2,0-4,1.8-4,4l0,0v11.8c0,2.2,1.8,4,4,4h16c2.2,0,4-1.8,4-4V6.4C24,4.2,22.2,2.4,20,2.4z M22.3,6.2
		v12.2c0,1.1-0.9,2-2,2l0,0l-16.5,0c-1.1,0-2-0.9-2-2l0,0V6.2c0-1.1,0.9-2,2-2l0,0h16.4C21.3,4.2,22.3,5.1,22.3,6.2L22.3,6.2z"/>
	<path d="M12.2,9.2h4.1c0.5,0,0.8-0.4,0.8-0.9c0-0.4-0.4-0.8-0.8-0.8h-4c-0.5,0-0.8,0.4-0.8,0.9C11.4,8.8,11.7,9.2,12.2,9.2z"/>
	<g>
		<path d="M12.1,14.3c0,0,7.9,0,7.9,0c0.5,0,0.8-0.4,0.8-0.8s-0.4-0.8-0.8-0.8h-7.8c-0.5,0-0.9,0.3-0.9,0.8
			C11.3,13.9,11.6,14.3,12.1,14.3z"/>
		<path d="M19.9,16h-7.8c-0.5,0-0.9,0.3-0.9,0.8c0,0.5,0.3,0.9,0.8,0.9c0,0,7.9,0,7.9,0c0.5,0,0.8-0.4,0.8-0.8
			C20.7,16.3,20.4,16,19.9,16z"/>
	</g>
</g>
<g>
	<g>
		<path d="M6.6,14.3c1.5,0,1.6,1.2,1.6,1.3V16H7.2H5.7H5v-0.4C5,15.5,5,14.3,6.6,14.3 M6.6,12.7c-2.6,0-3.2,2.2-3.2,3v1.5
			c0,0.3,0.2,0.5,0.5,0.5h1.8h1.5h2c0.3,0,0.5-0.2,0.5-0.5v-1.5C9.8,14.8,9.2,12.7,6.6,12.7L6.6,12.7z"/>
	</g>
	<g>
		<path d="M6.6,8.6c0.5,0,0.9,0.4,0.9,0.9s-0.4,0.9-0.9,0.9S5.7,10,5.7,9.5S6.1,8.6,6.6,8.6 M6.6,7C5.1,7,4,8.1,4,9.5
			s1.1,2.6,2.6,2.6S9.1,11,9.1,9.5S8,7,6.6,7L6.6,7z"/>
	</g>
</g>
</svg>
